<svg width="30" height="30" viewBox="0 0 30 30" fill="none" xmlns="http://www.w3.org/2000/svg">
<path d="M15.0001 22.3829C11.2426 22.3829 7.37862 20.0459 4.11987 15.8024C3.94306 15.5721 3.84728 15.2898 3.84741 14.9994C3.84755 14.7091 3.94359 14.4269 4.12062 14.1967C7.37862 9.95394 11.2426 7.61694 15.0001 7.61694C18.7576 7.61694 22.6216 9.95394 25.8804 14.1974C26.0572 14.4278 26.153 14.7101 26.1528 15.0004C26.1527 15.2908 26.0566 15.573 25.8796 15.8032C22.6216 20.0459 18.7576 22.3829 15.0001 22.3829ZM5.87262 14.9999C7.63362 17.2034 10.9494 20.5079 15.0001 20.5079C19.0516 20.5079 22.3674 17.2027 24.1276 14.9999C22.3666 12.7964 19.0509 9.49194 15.0001 9.49194C10.9486 9.49194 7.63287 12.7964 5.87262 14.9999ZM24.3931 15.3389L24.3939 15.3404L24.3931 15.3389ZM5.60562 14.6594L5.60712 14.6609L5.60562 14.6594Z" fill="black"/>
<path d="M15 18.375C16.864 18.375 18.375 16.864 18.375 15C18.375 13.136 16.864 11.625 15 11.625C13.136 11.625 11.625 13.136 11.625 15C11.625 16.864 13.136 18.375 15 18.375Z" fill="black"/>
</svg>
